<?xml version="1.0" encoding="utf-8"?>
<svg xmlns="http://www.w3.org/2000/svg" width="530" height="530" class="segno" xmlns:c2pa="http://c2pa.org/manifest"><metadata><c2pa:manifest>AAAWgmp1bWIAAAAeanVtZGMycGEAEQAQgAAAqgA4m3EDYzJwYQAAABZcanVtYgAAAEdqdW1kYzJtYQARABCAAACqADibcQN1cm46YzJwYTo2MTdkNDZiNy1lOWJkLTRlNzItOWY2OS0zMDQyZWI3MmJlMzEAAAADl2p1bWIAAAApanVtZGMyYXMAEQAQgAAAqgA4m3EDYzJwYS5hc3NlcnRpb25zAAAAALxqdW1iAAAARGp1bWRjYm9yABEAEIAAAKoAOJtxE2MycGEuaW5ncmVkaWVudC52MwAAAAAYYzJzaNBF870l3qhNXWyY4iPSkocAAABwY2JvcqNpZGM6Zm9ybWF0bWltYWdlL3N2Zyt4bWxqaW5zdGFuY2VJRHgseG1wOmlpZDoyOTE5YjAyMy0xNzY2LTQyZmYtOWQ0OS00YmNlYTIxODljNWNscmVsYXRpb25zaGlwaHBhcmVudE9mAAAB4mp1bWIAAABBanVtZGNib3IAEQAQgAAAqgA4m3ETYzJwYS5hY3Rpb25zLnYyAAAAABhjMnNoERCxd1tKsumGuKVkiTmpTAAAAZljYm9yomdhY3Rpb25zgqJmYWN0aW9ua2MycGEub3BlbmVkanBhcmFtZXRlcnOha2luZ3JlZGllbnRzgaJjdXJseC1zZWxmI2p1bWJmPWMycGEuYXNzZXJ0aW9ucy9jMnBhLmluZ3JlZGllbnQudjNkaGFzaFggL3NWv04ef0PbrWfLjBVIi/PoOlQ2aj+zgWW3Ntgio5CkZmFjdGlvbngdY29tLmFudGhyb3BpYy5jbGF1ZGUucHJvdmlkZWRqcGFyYW1ldGVyc6F4H2NvbS5hbnRocm9waWMub3JpZ2luLWNvbmZpZGVuY2VndW5rbm93bmtkZXNjcmlwdGlvbnhmQ2xhdWRlIHByb3ZpZGVkIHRoaXMgZmlsZSBhdCB0aGUgcmVxdWVzdCBvZiBhIHVzZXIgYW5kIG1heSBoYXZlIGNyZWF0ZWQgb3IgbW9kaWZpZWQgdGhlIGZpbGUgY29udGVudHMubXNvZnR3YXJlQWdlbnShZG5hbWVmQ2xhdWRlcmFsbEFjdGlvbnNJbmNsdWRlZPUAAADIanVtYgAAAEBqdW1kY2JvcgARABCAAACqADibcRNjMnBhLmhhc2guZGF0YQAAAAAYYzJzaHRoAbSGu0Kux1cOlpyR+qMAAACAY2JvcqVjYWxnZnNoYTI1NmNwYWRNAAAAAAAAAAAAAAAAAGRoYXNoWCDgv9KF/aRbeNDxEjT1QuiFF+Kx69U1AfzzOm2/G6B9qGRuYW1lbmp1bWJmIG1hbmlmZXN0amV4Y2x1c2lvbnOBomVzdGFydBi1Zmxlbmd0aBkeBAAAAj5qdW1iAAAAJ2p1bWRjMmNsABEAEIAAAKoAOJtxA2MycGEuY2xhaW0udjIAAAACD2Nib3KlY2FsZ2ZzaGEyNTZpc2lnbmF0dXJleE1zZWxmI2p1bWJmPS9jMnBhL3VybjpjMnBhOjYxN2Q0NmI3LWU5YmQtNGU3Mi05ZjY5LTMwNDJlYjcyYmUzMS9jMnBhLnNpZ25hdHVyZWppbnN0YW5jZUlEeCx4bXA6aWlkOmI5MDU4Y2Y4LWIwZDktNGI4NC1hNjU5LWQ5MDA5Y2VlY2MzN3JjcmVhdGVkX2Fzc2VydGlvbnODomN1cmx4LXNlbGYjanVtYmY9YzJwYS5hc3NlcnRpb25zL2MycGEuaW5ncmVkaWVudC52M2RoYXNoWCAvc1a/Th5/Q9utZ8uMFUiL8+g6VDZqP7OBZbc22CKjkKJjdXJseCpzZWxmI2p1bWJmPWMycGEuYXNzZXJ0aW9ucy9jMnBhLmFjdGlvbnMudjJkaGFzaFggSREgp4nN4g29sAyY4A2z/eo4D9pZcrKX3uCI5lcCm/2iY3VybHgpc2VsZiNqdW1iZj1jMnBhLmFzc2VydGlvbnMvYzJwYS5oYXNoLmRhdGFkaGFzaFggpedSGxeiZiFoiIzmKw2b+BSBwMQ9JvMzEQxz6OQraXR0Y2xhaW1fZ2VuZXJhdG9yX2luZm+jZG5hbWVvQW50aHJvcGljIEZpbGVzZ3ZlcnNpb25lMS4wLjBrc3BlY1ZlcnNpb25lMi40LjAAABA4anVtYgAAAChqdW1kYzJjcwARABCAAACqADibcQNjMnBhLnNpZ25hdHVyZQAAABAIY2JvctKEWQISogEmGCFZAgowggIGMIIBjaADAgECAhRA5aAK7sI50L64g/oGQgU9Z1UTADAKBggqhkjOPQQDAzBJMRcwFQYDVQQKEw5BbnRocm9waWMsIFBCQzEuMCwGA1UEAxMlQW50aHJvcGljIENvbnRlbnQgQ3JlZGVudGlhbHMgUm9vdCBDQTAeFw0yNjA4MDcxODQzNTZaFw0yODA4MDYxOTQzNTZaMEQxFzAVBgNVBAoTDkFudGhyb3BpYywgUEJDMSkwJwYDVQQDEyBBbnRocm9waWMgQ2xhdWRlIENvbnRlbnQgU2lnbmluZzBZMBMGByqGSM49AgEGCCqGSM49AwEHA0IABJh6CmvLUBgFFNU0vUKlOVtE6djd17L5SuwX0LemFisBM3dkd/3cyjxFA3Qo5S46fX0/ihY0VZ7mfb9KF703t5OjWDBWMA4GA1UdDwEB/wQEAwIHgDAVBgNVHSUEDjAMBgorBgEEAYPoXgIBMAwGA1UdEwEB/wQCMAAwHwYDVR0jBBgwFoAUzlHiBIFOZFsj+OPEz5o+nMHXXMIwCgYIKoZIzj0EAwMDZwAwZAIwMXMdFJ4BetLLVY7ORuE9noqbbAZOZn/aArXyTwFAZfKrPzxF2vPoJNf1+UCdg1XGAjBwX1zd9WGqYkqmL5SFqw1QySjr1zJfpJM9+1rdDwSPLMOPOjKuiXjoU/pUUeG9RwmhY3BhZFkNngAAAAAAAAAAAAAAAAAAAAAAAAAAAAAAAAAAAAAAAAAAAAAAAAAAAAAAAAAAAAAAAAAAAAAAAAAAAAAAAAAAAAAAAAAAAAAAAAAAAAAAAAAAAAAAAAAAAAAAAAAAAAAAAAAAAAAAAAAAAAAAAAAAAAAAAAAAAAAAAAAAAAAAAAAAAAAAAAAAAAAAAAAAAAAAAAAAAAAAAAAAAAAAAAAAAAAAAAAAAAAAAAAAAAAAAAAAAAAAAAAAAAAAAAAAAAAAAAAAAAAAAAAAAAAAAAAAAAAAAAAAAAAAAAAAAAAAAAAAAAAAAAAAAAAAAAAAAAAAAAAAAAAAAAAAAAAAAAAAAAAAAAAAAAAAAAAAAAAAAAAAAAAAAAAAAAAAAAAAAAAAAAAAAAAAAAAAAAAAAAAAAAAAAAAAAAAAAAAAAAAAAAAAAAAAAAAAAAAAAAAAAAAAAAAAAAAAAAAAAAAAAAAAAAAAAAAAAAAAAAAAAAAAAAAAAAAAAAAAAAAAAAAAAAAAAAAAAAAAAAAAAAAAAAAAAAAAAAAAAAAAAAAAAAAAAAAAAAAAAAAAAAAAAAAAAAAAAAAAAAAAAAAAAAAAAAAAAAAAAAAAAAAAAAAAAAAAAAAAAAAAAAAAAAAAAAAAAAAAAAAAAAAAAAAAAAAAAAAAAAAAAAAAAAAAAAAAAAAAAAAAAAAAAAAAAAAAAAAAAAAAAAAAAAAAAAAAAAAAAAAAAAAAAAAAAAAAAAAAAAAAAAAAAAAAAAAAAAAAAAAAAAAAAAAAAAAAAAAAAAAAAAAAAAAAAAAAAAAAAAAAAAAAAAAAAAAAAAAAAAAAAAAAAAAAAAAAAAAAAAAAAAAAAAAAAAAAAAAAAAAAAAAAAAAAAAAAAAAAAAAAAAAAAAAAAAAAAAAAAAAAAAAAAAAAAAAAAAAAAAAAAAAAAAAAAAAAAAAAAAAAAAAAAAAAAAAAAAAAAAAAAAAAAAAAAAAAAAAAAAAAAAAAAAAAAAAAAAAAAAAAAAAAAAAAAAAAAAAAAAAAAAAAAAAAAAAAAAAAAAAAAAAAAAAAAAAAAAAAAAAAAAAAAAAAAAAAAAAAAAAAAAAAAAAAAAAAAAAAAAAAAAAAAAAAAAAAAAAAAAAAAAAAAAAAAAAAAAAAAAAAAAAAAAAAAAAAAAAAAAAAAAAAAAAAAAAAAAAAAAAAAAAAAAAAAAAAAAAAAAAAAAAAAAAAAAAAAAAAAAAAAAAAAAAAAAAAAAAAAAAAAAAAAAAAAAAAAAAAAAAAAAAAAAAAAAAAAAAAAAAAAAAAAAAAAAAAAAAAAAAAAAAAAAAAAAAAAAAAAAAAAAAAAAAAAAAAAAAAAAAAAAAAAAAAAAAAAAAAAAAAAAAAAAAAAAAAAAAAAAAAAAAAAAAAAAAAAAAAAAAAAAAAAAAAAAAAAAAAAAAAAAAAAAAAAAAAAAAAAAAAAAAAAAAAAAAAAAAAAAAAAAAAAAAAAAAAAAAAAAAAAAAAAAAAAAAAAAAAAAAAAAAAAAAAAAAAAAAAAAAAAAAAAAAAAAAAAAAAAAAAAAAAAAAAAAAAAAAAAAAAAAAAAAAAAAAAAAAAAAAAAAAAAAAAAAAAAAAAAAAAAAAAAAAAAAAAAAAAAAAAAAAAAAAAAAAAAAAAAAAAAAAAAAAAAAAAAAAAAAAAAAAAAAAAAAAAAAAAAAAAAAAAAAAAAAAAAAAAAAAAAAAAAAAAAAAAAAAAAAAAAAAAAAAAAAAAAAAAAAAAAAAAAAAAAAAAAAAAAAAAAAAAAAAAAAAAAAAAAAAAAAAAAAAAAAAAAAAAAAAAAAAAAAAAAAAAAAAAAAAAAAAAAAAAAAAAAAAAAAAAAAAAAAAAAAAAAAAAAAAAAAAAAAAAAAAAAAAAAAAAAAAAAAAAAAAAAAAAAAAAAAAAAAAAAAAAAAAAAAAAAAAAAAAAAAAAAAAAAAAAAAAAAAAAAAAAAAAAAAAAAAAAAAAAAAAAAAAAAAAAAAAAAAAAAAAAAAAAAAAAAAAAAAAAAAAAAAAAAAAAAAAAAAAAAAAAAAAAAAAAAAAAAAAAAAAAAAAAAAAAAAAAAAAAAAAAAAAAAAAAAAAAAAAAAAAAAAAAAAAAAAAAAAAAAAAAAAAAAAAAAAAAAAAAAAAAAAAAAAAAAAAAAAAAAAAAAAAAAAAAAAAAAAAAAAAAAAAAAAAAAAAAAAAAAAAAAAAAAAAAAAAAAAAAAAAAAAAAAAAAAAAAAAAAAAAAAAAAAAAAAAAAAAAAAAAAAAAAAAAAAAAAAAAAAAAAAAAAAAAAAAAAAAAAAAAAAAAAAAAAAAAAAAAAAAAAAAAAAAAAAAAAAAAAAAAAAAAAAAAAAAAAAAAAAAAAAAAAAAAAAAAAAAAAAAAAAAAAAAAAAAAAAAAAAAAAAAAAAAAAAAAAAAAAAAAAAAAAAAAAAAAAAAAAAAAAAAAAAAAAAAAAAAAAAAAAAAAAAAAAAAAAAAAAAAAAAAAAAAAAAAAAAAAAAAAAAAAAAAAAAAAAAAAAAAAAAAAAAAAAAAAAAAAAAAAAAAAAAAAAAAAAAAAAAAAAAAAAAAAAAAAAAAAAAAAAAAAAAAAAAAAAAAAAAAAAAAAAAAAAAAAAAAAAAAAAAAAAAAAAAAAAAAAAAAAAAAAAAAAAAAAAAAAAAAAAAAAAAAAAAAAAAAAAAAAAAAAAAAAAAAAAAAAAAAAAAAAAAAAAAAAAAAAAAAAAAAAAAAAAAAAAAAAAAAAAAAAAAAAAAAAAAAAAAAAAAAAAAAAAAAAAAAAAAAAAAAAAAAAAAAAAAAAAAAAAAAAAAAAAAAAAAAAAAAAAAAAAAAAAAAAAAAAAAAAAAAAAAAAAAAAAAAAAAAAAAAAAAAAAAAAAAAAAAAAAAAAAAAAAAAAAAAAAAAAAAAAAAAAAAAAAAAAAAAAAAAAAAAAAAAAAAAAAAAAAAAAAAAAAAAAAAAAAAAAAAAAAAAAAAAAAAAAAAAAAAAAAAAAAAAAAAAAAAAAAAAAAAAAAAAAAAAAAAAAAAAAAAAAAAAAAAAAAAAAAAAAAAAAAAAAAAAAAAAAAAAAAAAAAAAAAAAAAAAAAAAAAAAAAAAAAAAAAAAAAAAAAAAAAAAAAAAAAAAAAAAAAAAAAAAAAAAAAAAAAAAAAAAAAAAAAAAAAAAAAAAAAAAAAAAAAAAAAAAAAAAAAAAAAAAAAAAAAAAAAAAAAAAAAAAAAAAAAAAAAAAAAAAAAAAAAAAAAAAAAAAAAAAAAAAAAAAAAAAAAAAAAAAAAAAAAAAAAAAAAAAAAAAAAAAAAAAAAAAAAAAAAAAAAAAAAAAAAAAAAAAAAAAAAAAAAAAAAAAAAAAAAAAAAAAAAAAAAAAAAAAAAAAAAAAAAAAAAAAAAAAAAAAAAAAAAAAAAAAAAAAAAAAAAAAAAAAAAAAAAAAAAAAAAAAAAAAAAAAAAAAAAAAAAAAAAAAAAAAAAAAAAAAAAAAAAAAAAAAAAAAAAAAAAAAAAAAAAAAAAAAAAAAAAAAAAAAAAAAAAAAAAAAAAAAAAAAAAAAAAAAAAAAAAAAAAAAAAAAAAAAAAAAAAAAAAAAAAAAAAAAAAAAAAAAAAAAAAAAAAAAAAAAAAAAAAAAAAAAAAAAAAAAAAAAAAAAAAAAAAAAAAAAAAAAAAAAAAAAAAAAAAAAAAAAAAAAAAAAAAAAAAAAAAAAAAAAAAAAAAAAAAAAAAAAAAAAAAAAAAAAAAAAAAAAAAAAAAAAAAAAAAAAAAAAAAAAAAAAAAAAAAAAAAAAAAAAAAAAAAAAAAAAAAAAAAAAAAAAAAAAAAAAAAAAAAAAAAAAAAAAAAAAAAAAAAAAAAAAAAAAAAAAAAAAAAAAAAAAAAAAAAAAAAAAAAAAAAAAAAAAAAAAAAAAAAAAAAAAAAAAAAAAAAAAAAAAAAAAAAAAAAAAAAAAAAAAAAAAAAAAAAAAAAAAAAAAAAAAAAAAAAAAAAAAAAAAAAAAAAAAAAAAAAAAAAAAAAAAAAAAAAAAAAAAAAAAAAAAAAAAAAAAAAAAAAAAAAAAAAAAAAAAAAAAAAAAAAAAAAAAAAAAAAAAAAAAAAAAAAAAAAAAAAAAAAAAAAAAAAAAAAAAAAAAAAAAAAAAAAAAAAAAAAAAAAAAAAAAAAAAAAAAAAAAAAAAAAAAAAAAAAAAAAAAAAAAAAAAAAAAAAAAAAAAAAAAAAAAAAAAAAAAAAAAAAAAAAAAAAAAAAAAAAAAAAAAAAAAAAAAAAAAAAAAAAAAAAAAAAAAAAAAAAAAAAAAAAAAAAAAAAAAAAAAAAAAAAAAAAAAAAAAAAAAAAAAAAAAAAAAAAAAAAAAAAAAAAAAAAAAAAAAAAAAAAAAAAAAAAAAAAAAAAAAAAAAAAAAAAAAAAAAAAAAAAAAAAAAAAAAAAAAAAAAAAAAAAAAAAAAAAAAAAAAAAAAAAAAAAAAAAAAAAAAAAAAAAAAAAAAAAAAAAAAAAAAAAAAAAAAAAAAAAAAAAAAAAAAAAAAAAAAAAAAAAAAAAAAAAAAAAAAAAAAAAAAAAAAAAAAAAAAAAAAAAAAAAAAAAAAAAAAAAAAAAAAAAAAAAAAAAAAAAAAAAAAAAAAAAAAAAAAAAAAAAAAAAAAAAAAAAAAAAAAAAAAAAAAAAAAAAAAAAAAAAAPZYQAM/6wBgmwNQNGUQBg6xFQw0dfMEnz4TyHDsKOsM5U0zTeZSOfWjaKNyLuRfKn3+PytFqgYgJn0ZddlqXDroS5U=</c2pa:manifest></metadata><path transform="scale(10)" class="qrline" stroke="#000" d="M4 4.5h7m5 0h2m1 0h3m2 0h2m1 0h1m2 0h2m2 0h4m2 0h1m1 0h7m-45 1h1m5 0h1m1 0h7m1 0h10m1 0h1m4 0h1m2 0h1m2 0h1m5 0h1m-45 1h1m1 0h3m1 0h1m5 0h1m1 0h2m2 0h1m3 0h2m1 0h1m3 0h2m1 0h2m1 0h1m2 0h1m1 0h3m1 0h1m-45 1h1m1 0h3m1 0h1m1 0h1m2 0h2m1 0h1m4 0h1m2 0h1m1 0h1m1 0h4m1 0h3m1 0h2m1 0h1m1 0h3m1 0h1m-45 1h1m1 0h3m1 0h1m1 0h6m1 0h2m2 0h6m1 0h1m1 0h1m1 0h3m1 0h3m1 0h1m1 0h3m1 0h1m-45 1h1m5 0h1m2 0h1m1 0h1m1 0h1m1 0h1m2 0h3m3 0h1m3 0h2m2 0h1m5 0h1m5 0h1m-45 1h7m1 0h1m1 0h1m1 0h1m1 0h1m1 0h1m1 0h1m1 0h1m1 0h1m1 0h1m1 0h1m1 0h1m1 0h1m1 0h1m1 0h1m1 0h1m1 0h7m-37 1h1m4 0h1m3 0h2m1 0h1m3 0h1m1 0h3m4 0h4m-36 1h1m1 0h4m1 0h3m3 0h1m4 0h7m2 0h1m1 0h1m6 0h2m1 0h2m1 0h1m-44 1h6m1 0h1m2 0h3m1 0h2m1 0h4m1 0h1m2 0h6m3 0h5m1 0h1m1 0h1m-43 1h3m1 0h3m1 0h3m1 0h3m4 0h1m1 0h2m1 0h1m2 0h3m1 0h1m2 0h1m1 0h2m3 0h1m2 0h1m-45 1h1m1 0h1m1 0h1m3 0h1m3 0h3m1 0h1m1 0h1m1 0h2m1 0h1m3 0h1m4 0h2m3 0h1m3 0h2m1 0h1m-45 1h2m1 0h1m2 0h1m3 0h1m1 0h2m1 0h2m1 0h2m2 0h3m1 0h1m1 0h1m2 0h2m1 0h2m1 0h2m1 0h2m1 0h2m-45 1h5m2 0h5m1 0h2m1 0h2m1 0h2m2 0h2m1 0h1m2 0h2m1 0h2m1 0h2m1 0h1m1 0h1m2 0h1m-43 1h1m2 0h3m1 0h1m3 0h1m1 0h4m6 0h1m1 0h2m1 0h1m1 0h1m1 0h1m3 0h2m1 0h3m-39 1h2m2 0h1m2 0h7m1 0h2m2 0h1m5 0h2m4 0h1m1 0h1m3 0h3m-44 1h1m1 0h5m1 0h1m2 0h1m2 0h1m2 0h1m5 0h1m1 0h2m2 0h6m2 0h1m1 0h1m4 0h1m-45 1h2m1 0h1m1 0h1m1 0h7m2 0h6m2 0h2m1 0h2m1 0h2m2 0h3m2 0h2m1 0h1m1 0h1m-44 1h1m4 0h1m2 0h1m3 0h2m8 0h1m3 0h1m5 0h1m3 0h1m1 0h4m1 0h1m-45 1h1m1 0h1m1 0h1m2 0h1m2 0h6m1 0h2m3 0h1m7 0h2m1 0h2m1 0h3m1 0h5m-43 1h1m1 0h6m3 0h1m2 0h2m2 0h10m6 0h5m-37 1h1m3 0h4m3 0h1m3 0h2m3 0h2m1 0h4m2 0h4m3 0h1m2 0h1m-44 1h2m2 0h1m1 0h1m1 0h1m2 0h3m1 0h6m1 0h1m1 0h1m1 0h2m3 0h1m2 0h1m1 0h1m1 0h1m1 0h5m-43 1h3m3 0h8m1 0h4m3 0h2m1 0h1m1 0h2m1 0h1m1 0h3m3 0h1m1 0h3m-42 1h6m1 0h1m3 0h1m4 0h6m3 0h1m1 0h1m1 0h1m1 0h1m1 0h5m2 0h2m-45 1h1m6 0h3m1 0h3m4 0h2m1 0h1m3 0h1m1 0h1m1 0h2m2 0h1m4 0h2m2 0h2m-44 1h4m2 0h1m1 0h3m2 0h3m3 0h2m2 0h1m2 0h1m1 0h2m2 0h1m2 0h2m4 0h2m-42 1h1m1 0h1m1 0h1m4 0h3m2 0h2m2 0h1m1 0h2m1 0h1m1 0h2m6 0h2m4 0h5m-45 1h1m1 0h2m2 0h1m1 0h3m5 0h1m2 0h1m2 0h1m7 0h3m2 0h1m1 0h1m1 0h3m1 0h2m-41 1h2m1 0h1m1 0h2m1 0h2m1 0h1m1 0h1m2 0h2m1 0h2m1 0h3m1 0h1m2 0h2m2 0h4m2 0h2m-45 1h2m4 0h1m5 0h2m1 0h1m3 0h3m2 0h1m3 0h1m4 0h1m3 0h2m1 0h2m2 0h1m-45 1h1m1 0h1m1 0h1m5 0h2m1 0h1m1 0h4m4 0h1m4 0h1m1 0h2m1 0h3m4 0h3m1 0h1m-43 1h1m2 0h2m1 0h2m2 0h1m1 0h3m1 0h1m1 0h1m1 0h1m1 0h2m2 0h3m3 0h1m1 0h2m5 0h1m-42 1h2m6 0h1m6 0h1m1 0h1m1 0h1m1 0h4m2 0h7m1 0h1m1 0h3m-38 1h1m1 0h1m1 0h2m1 0h1m1 0h1m3 0h8m1 0h2m1 0h1m1 0h4m1 0h1m1 0h1m3 0h3m-44 1h4m2 0h6m1 0h1m1 0h1m1 0h1m5 0h2m3 0h2m1 0h3m2 0h4m1 0h2m-44 1h1m2 0h2m1 0h1m1 0h1m1 0h2m3 0h2m2 0h6m3 0h3m1 0h1m1 0h7m3 0h1m-37 1h2m1 0h2m2 0h3m1 0h2m3 0h2m3 0h3m1 0h1m1 0h2m3 0h1m1 0h2m-44 1h7m2 0h2m1 0h4m1 0h4m1 0h1m1 0h2m2 0h1m3 0h2m1 0h2m1 0h1m1 0h2m-42 1h1m5 0h1m1 0h1m4 0h2m3 0h3m3 0h3m3 0h1m2 0h1m1 0h2m3 0h3m1 0h1m-45 1h1m1 0h3m1 0h1m1 0h2m1 0h1m1 0h1m6 0h5m1 0h1m2 0h1m2 0h1m1 0h1m1 0h6m1 0h2m-45 1h1m1 0h3m1 0h1m1 0h4m3 0h1m1 0h2m1 0h5m1 0h1m3 0h1m3 0h2m3 0h1m1 0h3m-44 1h1m1 0h3m1 0h1m4 0h1m2 0h2m1 0h2m1 0h2m1 0h1m1 0h1m2 0h2m1 0h3m2 0h3m1 0h1m1 0h1m1 0h1m-45 1h1m5 0h1m1 0h1m3 0h1m1 0h2m1 0h3m4 0h2m2 0h1m1 0h2m3 0h2m1 0h1m3 0h3m-45 1h7m5 0h1m2 0h5m1 0h3m1 0h2m1 0h2m1 0h1m1 0h1m2 0h1m1 0h1m1 0h1"/></svg>
